# xmcd
#
# Track frame offsets: 
#        150
#        32797
#        57562
#        96666
#        131892
#        150401
#        187894
#        205024
#        229594
#        257010
#        272008
#        292001
#        312583
#
# Disc length: 4554 seconds
#
# Revision: 0
# Processed by: cddbd v1.5.2PL0 Copyright (c) Steve Scherf et al.
# Submitted via: ExactAudioCopyFreeDBPlugin 1.0
#
DISCID=c111c80d
DTITLE=Joris Hering Blues Band - Zwei Null Dreizehn
DYEAR=2013
DGENRE=Blues
TTITLE0=Hoochie Coochie Man
TTITLE1=Süße
TTITLE2=Ain't Superstitious
TTITLE3=Texas Flood
TTITLE4=Cabin Down Below
TTITLE5=Puppe
TTITLE6=Katze
TTITLE7=Folsom Prison Blues
TTITLE8=Regen
TTITLE9=Wunderschön
TTITLE10=Feierabend
TTITLE11=Good Morning Little School Girl
TTITLE12=Der Mann von Nebenan
EXTD=
EXTT0=
EXTT1=
EXTT2=
EXTT3=
EXTT4=
EXTT5=
EXTT6=
EXTT7=
EXTT8=
EXTT9=
EXTT10=
EXTT11=
EXTT12=
PLAYORDER=
